<svg width="73" height="42" viewBox="0 0 73 42" fill="none" xmlns="http://www.w3.org/2000/svg">
    <path d="M13.944 4.96C14.36 5.808 14.568 6.752 14.568 7.792C14.568 8.832 14.36 9.776 13.944 10.624C13.528 11.456 12.992 12.12 12.336 12.616C11.008 13.64 9.632 14.152 8.208 14.152H5.208V16.864C5.208 17.232 5.192 17.512 5.16 17.704C5.144 17.88 5.072 18.088 4.944 18.328C4.72 18.76 4.096 18.976 3.072 18.976C1.952 18.976 1.296 18.68 1.104 18.088C1.008 17.816 0.96 17.4 0.96 16.84V3.52C0.96 3.152 0.968 2.88 0.984 2.704C1.016 2.512 1.096 2.296 1.224 2.056C1.448 1.624 2.072 1.408 3.096 1.408H8.232C9.64 1.408 11.008 1.92 12.336 2.944C12.992 3.44 13.528 4.112 13.944 4.96ZM8.232 9.904C8.712 9.904 9.184 9.728 9.648 9.376C10.112 9.024 10.344 8.496 10.344 7.792C10.344 7.088 10.112 6.56 9.648 6.208C9.184 5.84 8.704 5.656 8.208 5.656H5.208V9.904H8.232ZM24.3801 1.192C26.7481 1.192 28.8041 2.048 30.5481 3.76C32.2921 5.472 33.1641 7.6 33.1641 10.144C33.1641 12.672 32.3321 14.832 30.6681 16.624C29.0041 18.4 26.9561 19.288 24.5241 19.288C22.0921 19.288 20.0201 18.408 18.3081 16.648C16.6121 14.888 15.7641 12.792 15.7641 10.36C15.7641 9.032 16.0041 7.792 16.4841 6.64C16.9641 5.472 17.6041 4.496 18.4041 3.712C19.2041 2.928 20.1241 2.312 21.1641 1.864C22.2041 1.416 23.2761 1.192 24.3801 1.192ZM20.0121 10.24C20.0121 11.664 20.4681 12.824 21.3801 13.72C22.3081 14.6 23.3401 15.04 24.4761 15.04C25.6121 15.04 26.6361 14.608 27.5481 13.744C28.4601 12.88 28.9161 11.72 28.9161 10.264C28.9161 8.808 28.4521 7.64 27.5241 6.76C26.6121 5.88 25.5881 5.44 24.4521 5.44C23.3161 5.44 22.2921 5.888 21.3801 6.784C20.4681 7.664 20.0121 8.816 20.0121 10.24ZM2.112 22.384H15.456C15.968 22.384 16.344 22.448 16.584 22.576C16.824 22.688 16.984 22.872 17.064 23.128C17.144 23.384 17.184 23.72 17.184 24.136C17.184 24.552 17.144 24.888 17.064 25.144C16.984 25.384 16.848 25.552 16.656 25.648C16.368 25.792 15.96 25.864 15.432 25.864H10.848V37.936C10.848 38.304 10.832 38.576 10.8 38.752C10.784 38.928 10.712 39.136 10.584 39.376C10.472 39.6 10.264 39.76 9.96 39.856C9.656 39.952 9.256 40 8.76 40C8.264 40 7.864 39.952 7.56 39.856C7.272 39.76 7.064 39.6 6.936 39.376C6.824 39.136 6.752 38.928 6.72 38.752C6.704 38.56 6.696 38.28 6.696 37.912V25.864H2.088C1.576 25.864 1.2 25.808 0.96 25.696C0.72 25.568 0.56 25.376 0.48 25.12C0.4 24.864 0.36 24.528 0.36 24.112C0.36 23.696 0.4 23.368 0.48 23.128C0.56 22.872 0.696 22.696 0.888 22.6C1.176 22.456 1.584 22.384 2.112 22.384ZM25.341 22.192C27.709 22.192 29.765 23.048 31.509 24.76C33.253 26.472 34.125 28.6 34.125 31.144C34.125 33.672 33.293 35.832 31.629 37.624C29.965 39.4 27.917 40.288 25.485 40.288C23.053 40.288 20.981 39.408 19.269 37.648C17.573 35.888 16.725 33.792 16.725 31.36C16.725 30.032 16.965 28.792 17.445 27.64C17.925 26.472 18.565 25.496 19.365 24.712C20.165 23.928 21.085 23.312 22.125 22.864C23.165 22.416 24.237 22.192 25.341 22.192ZM20.973 31.24C20.973 32.664 21.429 33.824 22.341 34.72C23.269 35.6 24.301 36.04 25.437 36.04C26.573 36.04 27.597 35.608 28.509 34.744C29.421 33.88 29.877 32.72 29.877 31.264C29.877 29.808 29.413 28.64 28.485 27.76C27.573 26.88 26.549 26.44 25.413 26.44C24.277 26.44 23.253 26.888 22.341 27.784C21.429 28.664 20.973 29.816 20.973 31.24ZM37.8304 22.384L42.2704 22.408C44.5904 22.408 46.6304 23.248 48.3904 24.928C50.1504 26.592 51.0304 28.648 51.0304 31.096C51.0304 33.528 50.1664 35.616 48.4384 37.36C46.7264 39.104 44.6464 39.976 42.1984 39.976H37.8064C36.8304 39.976 36.2224 39.776 35.9824 39.376C35.7904 39.04 35.6944 38.528 35.6944 37.84V24.496C35.6944 24.112 35.7024 23.832 35.7184 23.656C35.7504 23.48 35.8304 23.272 35.9584 23.032C36.1824 22.6 36.8064 22.384 37.8304 22.384ZM42.2704 35.728C43.4224 35.728 44.4624 35.304 45.3904 34.456C46.3184 33.592 46.7824 32.512 46.7824 31.216C46.7824 29.92 46.3264 28.84 45.4144 27.976C44.5184 27.096 43.4624 26.656 42.2464 26.656H39.9424V35.728H42.2704Z" fill="#FAB387"/>
    <path d="M62.0131 21.9205C64.0256 21.9506 65.9701 22.6533 67.5367 23.9168C69.1034 25.1803 70.202 26.9319 70.6577 28.8923C71.1133 30.8527 70.8996 32.9092 70.0507 34.7341C69.2018 36.559 67.7665 38.0472 65.9735 38.9616C64.1806 39.8761 62.1331 40.164 60.1575 39.7797C58.1819 39.3954 56.3917 38.3608 55.0723 36.8409C53.7529 35.3211 52.9802 33.4033 52.8774 31.3932C52.7745 29.3832 53.3473 27.3966 54.5047 25.7499L57.8295 28.0867C57.1941 28.9909 56.8795 30.0818 56.936 31.1855C56.9925 32.2892 57.4168 33.3423 58.1412 34.1769C58.8657 35.0114 59.8487 35.5795 60.9335 35.7905C62.0184 36.0016 63.1426 35.8434 64.1271 35.3413C65.1116 34.8392 65.8998 34.022 66.3659 33.02C66.832 32.0179 66.9494 30.8887 66.6992 29.8122C66.449 28.7358 65.8457 27.774 64.9855 27.0802C64.1252 26.3864 63.0575 26.0005 61.9525 25.984L62.0131 21.9205Z" fill="#FAB387"/>
    <path fill-rule="evenodd" clip-rule="evenodd" d="M58 24L59.8212 30.5046L57.9955 31.3212L56.1598 27.2171L51.2073 28.1711L51.1684 27.9692C50.9752 26.9667 51.5682 25.9797 52.5439 25.6794L58 24Z" fill="#FAB387"/>
</svg>