<svg width="32" height="32" viewBox="0 0 48 48" fill="none" xmlns="http://www.w3.org/2000/svg">
<path d="M24 42C33.9411 42 42 33.9411 42 24C42 14.0589 33.9411 6 24 6C14.0589 6 6 14.0589 6 24C6 33.9411 14.0589 42 24 42Z" stroke="black" stroke-width="3" stroke-linecap="round" stroke-linejoin="round"/>
<path d="M24 30C28.1421 30 31.5 26.6421 31.5 22.5C31.5 18.3579 28.1421 15 24 15C19.8579 15 16.5 18.3579 16.5 22.5C16.5 26.6421 19.8579 30 24 30Z" stroke="black" stroke-width="3" stroke-linecap="round" stroke-linejoin="round"/>
<path d="M11.9625 37.3876C13.091 35.1646 14.8131 33.2976 16.9379 31.9934C19.0626 30.6892 21.5069 29.9989 24 29.9989C26.493 29.9989 28.9374 30.6892 31.0621 31.9934C33.1868 33.2976 34.9089 35.1646 36.0375 37.3876" stroke="black" stroke-width="3" stroke-linecap="round" stroke-linejoin="round"/>
</svg>