<svg width="32" height="32" viewBox="0 0 48 48" fill="none" xmlns="http://www.w3.org/2000/svg">
<path d="M24 15V24" stroke="black" stroke-width="3" stroke-linecap="round" stroke-linejoin="round"/>
<path d="M31.8 28.5L24 24" stroke="black" stroke-width="3" stroke-linecap="round" stroke-linejoin="round"/>
<path d="M34.5375 18.6938H42.0375V11.1938" stroke="black" stroke-width="3" stroke-linecap="round" stroke-linejoin="round"/>
<path d="M35.6625 35.6625C33.3555 37.9714 30.4155 39.5442 27.2144 40.182C24.0134 40.8197 20.6951 40.4938 17.6793 39.2453C14.6635 37.9969 12.0858 35.882 10.2722 33.1683C8.45853 30.4546 7.49048 27.264 7.49048 24C7.49048 20.736 8.45853 17.5454 10.2722 14.8317C12.0858 12.118 14.6635 10.0032 17.6793 8.75471C20.6951 7.50626 24.0134 7.18029 27.2144 7.81804C30.4155 8.45578 33.3555 10.0286 35.6625 12.3375L42.0375 18.6938" stroke="black" stroke-width="3" stroke-linecap="round" stroke-linejoin="round"/>
</svg>